<?xml version="1.0" standalone="no"?>
<!DOCTYPE svg PUBLIC "-//W3C//DTD SVG 20010904//EN"
 "http://www.w3.org/TR/2001/REC-SVG-20010904/DTD/svg10.dtd">
<svg version="1.0" xmlns="http://www.w3.org/2000/svg"
 width="700.000000pt" height="700.000000pt" viewBox="0 0 700.000000 700.000000"
 preserveAspectRatio="xMidYMid meet">
<metadata>
Created by potrace 1.14, written by Peter Selinger 2001-2017
</metadata>
<g transform="translate(0.000000,700.000000) scale(0.100000,-0.100000)"
fill="#000000" stroke="none">
<path d="M3038 6995 c-2 -2 -75 -6 -163 -10 -88 -3 -176 -8 -195 -9 -19 -2
-78 -7 -130 -11 -134 -10 -251 -21 -312 -31 -69 -10 -86 -13 -128 -19 -80 -12
-229 -38 -275 -49 -230 -53 -323 -80 -480 -141 -274 -106 -475 -233 -660 -419
-187 -188 -307 -374 -415 -646 -57 -144 -133 -409 -155 -540 -3 -19 -8 -42
-11 -51 -2 -10 -7 -30 -9 -45 -2 -16 -13 -88 -24 -161 -11 -72 -23 -157 -26
-190 -3 -32 -8 -71 -10 -88 -2 -16 -7 -73 -10 -125 -3 -52 -8 -113 -10 -135
-20 -197 -28 -1136 -12 -1440 11 -228 34 -514 52 -642 3 -18 7 -50 10 -71 33
-236 104 -561 145 -667 4 -11 22 -60 40 -110 226 -632 666 -1019 1380 -1214
76 -21 276 -65 340 -75 19 -3 45 -8 56 -10 52 -11 292 -42 379 -50 386 -34
561 -41 1080 -41 393 0 681 7 835 20 25 2 80 6 123 10 103 8 165 14 207 20 19
2 60 7 90 10 62 7 152 21 270 41 19 3 49 8 65 11 17 3 75 15 130 28 938 216
1417 691 1635 1620 48 203 101 564 116 785 3 52 7 113 9 135 27 305 27 1282
-1 1661 -8 122 -13 178 -18 214 -3 19 -7 64 -11 100 -7 69 -12 117 -20 165 -3
17 -8 50 -11 75 -3 25 -21 122 -40 215 -196 985 -662 1491 -1589 1724 -89 22
-256 56 -325 66 -67 9 -103 15 -120 20 -8 2 -46 6 -85 10 -38 3 -77 8 -85 10
-8 2 -49 7 -90 10 -41 3 -91 8 -110 10 -32 3 -127 9 -310 21 -78 5 -1117 13
-1122 9z m664 -1095 c277 -46 528 -208 682 -440 52 -78 123 -225 275 -575 51
-115 98 -223 106 -240 7 -16 23 -51 34 -77 12 -27 30 -67 40 -90 11 -24 43
-97 72 -163 28 -66 62 -142 74 -170 13 -27 62 -140 110 -250 48 -110 95 -218
105 -240 10 -22 78 -175 150 -340 73 -165 140 -318 150 -340 92 -207 135 -318
146 -375 3 -14 11 -51 18 -82 18 -77 17 -268 -1 -365 -122 -668 -741 -998
-1458 -779 -44 13 -132 40 -196 60 -156 48 -236 66 -349 80 -139 17 -297 12
-415 -14 -22 -5 -54 -11 -72 -14 -17 -4 -134 -37 -260 -75 -126 -38 -274 -77
-328 -86 -105 -18 -273 -23 -365 -11 -342 44 -618 227 -771 510 -41 76 -92
212 -103 277 -33 178 -33 317 -1 464 9 43 35 131 44 150 5 11 26 61 46 110 21
50 48 113 60 140 13 28 197 446 410 930 213 484 400 908 416 943 16 35 29 65
29 67 0 3 13 33 29 67 15 35 50 113 76 173 107 248 166 343 289 469 148 151
317 240 536 283 112 22 301 23 422 3z"/>
<path d="M3490 4819 c0 -5 -10 -31 -21 -57 -12 -25 -55 -123 -96 -217 -41 -93
-83 -188 -93 -210 -10 -22 -68 -155 -130 -295 -62 -140 -123 -280 -137 -310
-14 -30 -31 -68 -38 -85 -7 -16 -23 -52 -35 -80 -13 -27 -30 -68 -40 -90 -9
-22 -26 -60 -38 -85 -34 -75 -358 -811 -383 -870 -13 -30 -31 -71 -40 -90 -20
-40 -12 -47 28 -27 53 28 289 107 363 122 8 2 35 8 60 14 99 22 240 42 395 56
111 10 415 4 530 -10 22 -3 60 -7 85 -10 177 -21 449 -95 606 -165 l63 -29
-34 77 c-56 130 -276 635 -290 667 -24 53 -157 358 -185 425 -15 36 -39 90
-53 120 -14 30 -77 175 -141 322 -341 787 -364 838 -372 838 -2 0 -4 -5 -4
-11z"/>
</g>
</svg>
